<svg xmlns="http://www.w3.org/2000/svg" viewBox="0 0 602.05 719"><defs><style>.cls-1{fill:#fff;}</style></defs><g id="Capa_2" data-name="Capa 2"><g id="Capa_1-2" data-name="Capa 1"><path class="cls-1" d="M537,466.07c-34.28-2.68-73.91-11.78-115.36-26a10.61,10.61,0,0,1-4-17.62c50.45-49.26,69.75-130.17,25.84-210.31A131.21,131.21,0,0,0,388.9,158.9c-108.39-56.46-216.17.54-246.21,92.49a8.31,8.31,0,0,1-14.12,2.76c-31.9-36.14-54.91-74.74-64-114l-2.31-10a21.16,21.16,0,0,1,4.22-18A299.12,299.12,0,0,1,298.06,0C464.31-1.25,600.78,132.5,602,298.75c.45,59.84-15.93,109.66-45,157.05a21.53,21.53,0,0,1-20,10.27Z"/><path class="cls-1" d="M517,485.8C356.16,464.51,101.84,325.44,48.44,163.18a7.94,7.94,0,0,0-14.62-1.12A300.37,300.37,0,0,0,0,303.29c1.21,161.27,122,248,288.06,409.52a21.88,21.88,0,0,0,30.72-.22c82.69-82.85,154.41-146.44,205-209.89A10.48,10.48,0,0,0,517,485.8ZM53.38,284.61l-2.89.8a6.43,6.43,0,0,1-7.93-4.65,222.27,222.27,0,0,1-6.09-35.62,6.44,6.44,0,0,1,6.71-7h0a4.67,4.67,0,0,1,4.32,3.76c2.51,12.55,5.6,24.13,10,34A6.36,6.36,0,0,1,53.38,284.61Zm89,134.42-18.24,10.43a10.43,10.43,0,0,1-13.58-2.94A412.13,412.13,0,0,1,73.7,365.83a13.67,13.67,0,0,1,7.13-18.77l3.45-1.38a13.51,13.51,0,0,1,16.09,4.71,398.67,398.67,0,0,0,44.25,52.39A10.34,10.34,0,0,1,142.38,419ZM360.75,575.29l-28.81,28.8a16.17,16.17,0,0,1-20.24,2.12c-38.53-25-72.6-48-103.64-79.24a20.18,20.18,0,0,1,2.19-30.37L224,486.29a20.23,20.23,0,0,1,23.75-.3,787.38,787.38,0,0,0,108.6,63.37A16.12,16.12,0,0,1,360.75,575.29Z"/></g></g></svg>