<?xml version="1.0" encoding="utf-8"?>
<!-- Generator: Adobe Illustrator 24.2.1, SVG Export Plug-In . SVG Version: 6.00 Build 0)  -->
<svg version="1.1" id="Capa_1" xmlns="http://www.w3.org/2000/svg" xmlns:xlink="http://www.w3.org/1999/xlink" x="0px" y="0px"
	 viewBox="0 0 1475.6 861.6" style="enable-background:new 0 0 1475.6 861.6;" xml:space="preserve">
<style type="text/css">
	.st0{enable-background:new    ;}
	.st1{fill:#FFFFFF;}
</style>
<g id="Capa_2_1_">
	<g id="Capa_1-2">
		<g class="st0">
			<path class="st1" d="M197.1,671.5c8.4,8.7,12.6,20.5,12.6,35.3v85h-34.3v-76.4c0-8.4-1.9-14.9-5.8-19.4c-3.9-4.5-9-6.8-15.4-6.8
				c-7.6,0-13.5,2.6-17.7,7.8c-4.2,5.2-6.3,11.9-6.3,20.2v74.6H96.3v-76.4c0-8.1-2-14.4-6.1-19c-4.1-4.6-9.5-6.9-16.3-6.9
				c-7,0-12.7,2.7-16.9,8c-4.2,5.3-6.3,11.9-6.3,19.8v74.6H16.1V662.6h31.5l1.8,13.1c3.7-5.3,8.8-9.6,15.2-12.7
				c6.4-3.1,13.2-4.6,20.2-4.6c9,0,17,2.1,24,6.3c7,4.2,12.2,10,15.5,17.3c3.7-7.5,9-13.3,16-17.4c7-4.1,15.1-6.2,24.4-6.2
				C177.9,658.4,188.7,662.8,197.1,671.5z"/>
		</g>
		<g class="st0">
			<path class="st1" d="M360.9,662.6l-57.1,151.1c-4.6,12.1-10.7,21.9-18.3,29.3c-7.6,7.5-18.8,11.2-33.7,11.2
				c-7.2,0-15.1-1-23.6-3.1l0.3-29.1c7.7,1.3,13.6,2,17.6,2c8.6,0,14.8-1.7,18.4-5c3.6-3.3,6.7-8.4,9.2-15.1l2.6-7.2L223,662.6h37.3
				l31.9,90.3l32.6-90.3H360.9z"/>
		</g>
		<g class="st0">
			<path class="st1" d="M449.3,692h-23.5v99.8h-34.3V692h-23.2v-29.4h23.2V629h34.3v33.6h23.5V692z"/>
		</g>
		<g class="st0">
			<path class="st1" d="M541.9,662.6v31c-1.4-0.2-3.6-0.3-6.6-0.3c-11.1,0-19.6,3.1-25.5,9.4c-5.9,6.2-8.8,15-8.8,26.4v62.8h-34.6
				V662.6h31.2l2.8,18.6c1.8-6.6,5.4-11.5,10.9-14.9c5.4-3.4,11.9-5.1,19.2-5.1C535.4,661.2,539.1,661.7,541.9,662.6z"/>
		</g>
		<g class="st0">
			<path class="st1" d="M688,662.6v129.2h-33v-16.5c-4.2,6.2-10.2,11.1-18,14.8c-7.7,3.7-16.2,5.5-25.4,5.5
				c-11.4,0-21.6-2.8-30.5-8.4c-8.9-5.6-15.8-13.5-20.7-23.6c-5-10.2-7.4-22-7.4-35.5c0-13.8,2.6-26,7.7-36.5
				c5.1-10.6,12.4-18.7,21.8-24.5c9.4-5.8,20.1-8.7,32.1-8.7c9.2,0,17.4,1.6,24.6,4.9c7.2,3.2,13.1,7.9,17.6,14.1l2.7-14.8H688z
				 M644.3,753c6.1-6.6,9.1-15.4,9.1-26.4c0-11-3-19.8-9-26.4c-6-6.6-13.9-9.9-23.7-9.9c-10,0-17.9,3.4-23.8,10.1
				c-5.9,6.7-8.8,15.5-8.8,26.2c0,10.8,3,19.5,9,26.2c6,6.7,13.8,10.1,23.3,10.1C630.2,762.9,638.2,759.6,644.3,753z"/>
		</g>
		<g class="st0">
			<path class="st1" d="M823.2,672.8c8.3,9.6,12.4,22.6,12.4,38.9v80.1H801V720c0-19.6-7.6-29.4-22.7-29.4c-8.3,0-14.6,2.6-18.9,7.7
				c-4.3,5.1-6.5,11.9-6.5,20.3v73.2h-34.3V662.6h28.8l2.2,15.1c3.9-5.9,9.3-10.6,16.3-14.1c7-3.5,14.7-5.2,23-5.2
				C803.4,658.4,814.9,663.2,823.2,672.8z"/>
		</g>
		<g class="st0">
			<path class="st1" d="M873.7,784c-9.8-7.7-15.1-18-16-30.8h34c0.2,5,2.1,8.8,5.8,11.6c3.7,2.8,8.4,4.2,14,4.2
				c5.3,0,9.5-1.1,12.7-3.3c3.2-2.2,4.7-5.3,4.7-9.4c0-4-1.2-6.9-3.6-8.7c-2.4-1.7-5.6-3.1-9.7-4l-20.5-4.9
				c-11.8-2.9-20.5-7.6-26.1-14.1c-5.6-6.5-8.4-14.5-8.4-23.8c0-12.7,4.7-22.9,14-30.7c9.3-7.8,21.5-11.7,36.7-11.7
				c14.8,0,26.8,3.8,36.1,11.5c9.3,7.7,14.2,17.8,14.5,30.3h-33.8c-0.2-4.6-1.8-8.3-5-11c-3.2-2.7-7.4-4.1-12.7-4.1
				c-4.6,0-8.3,1.1-11.1,3.2c-2.8,2.1-4.2,5.1-4.2,8.9c0,3.7,1.1,6.3,3.3,7.8c2.2,1.5,5.7,2.9,10.3,4l23.8,5.8
				c10.9,2.7,18.9,7.4,24,14s7.7,14.5,7.7,23.7c0,13-4.8,23.5-14.4,31.3c-9.6,7.8-22.3,11.8-38.2,11.8
				C896.2,795.6,883.5,791.7,873.7,784z"/>
			<path class="st1" d="M1101.3,666.9c9.2,5.7,16.4,13.7,21.5,24.2c5.1,10.5,7.7,22.4,7.7,35.8c0,13.4-2.6,25.3-7.7,35.7
				c-5.1,10.4-12.4,18.5-21.7,24.3s-19.9,8.7-31.7,8.7c-8.5,0-16.1-1.4-23-4.2c-6.8-2.8-12.5-6.8-16.9-12V852h-34.3V662.6h28.5
				l2.2,16.7c4.2-6.6,10.2-11.7,18-15.4c7.7-3.7,16.3-5.6,25.8-5.6C1081.6,658.4,1092.1,661.2,1101.3,666.9z M1086.5,753.2
				c6-6.7,9-15.5,9-26.2c0-10.8-3-19.5-9-26.2c-6-6.7-13.8-10.1-23.3-10.1c-9.8,0-17.8,3.3-23.8,9.9c-6.1,6.6-9.1,15.5-9.1,26.7
				c0,11,3,19.7,9,26.2c6,6.5,13.8,9.8,23.6,9.8C1072.6,763.2,1080.5,759.9,1086.5,753.2z"/>
		</g>
		<g class="st0">
			<path class="st1" d="M1150,691.5c5.7-10.4,13.8-18.5,24.2-24.3c10.4-5.9,22.2-8.8,35.5-8.8c13.2,0,25.1,2.9,35.5,8.8
				c10.4,5.9,18.5,14,24.2,24.3c5.7,10.4,8.6,22.2,8.6,35.4s-2.9,25-8.6,35.5c-5.7,10.4-13.8,18.6-24.2,24.4
				c-10.4,5.9-22.3,8.8-35.6,8.8c-13.2,0-25-2.9-35.3-8.8c-10.3-5.9-18.4-14-24.2-24.3s-8.7-22.2-8.7-35.5
				C1141.4,713.7,1144.3,701.9,1150,691.5z M1185.8,753.3c6.2,7,14.1,10.5,23.8,10.5c9.8,0,17.8-3.5,24-10.5
				c6.2-7,9.3-15.8,9.3-26.4c0-10.8-3-19.6-9.1-26.4c-6.1-6.8-14.1-10.2-24.1-10.2c-9.8,0-17.8,3.4-23.9,10.3
				c-6.1,6.8-9.2,15.6-9.2,26.3C1176.5,737.5,1179.6,746.3,1185.8,753.3z"/>
		</g>
		<g class="st0">
			<path class="st1" d="M1377.8,662.6v31c-1.4-0.2-3.6-0.3-6.6-0.3c-11.1,0-19.6,3.1-25.5,9.4c-5.9,6.2-8.8,15-8.8,26.4v62.8h-34.6
				V662.6h31.2l2.8,18.6c1.8-6.6,5.4-11.5,10.9-14.9c5.4-3.4,11.9-5.1,19.2-5.1C1371.2,661.2,1375,661.7,1377.8,662.6z"/>
		</g>
		<g class="st0">
			<path class="st1" d="M1471.5,692H1448v99.8h-34.3V692h-23.2v-29.4h23.2V629h34.3v33.6h23.5V692z"/>
		</g>
		<path class="st1" d="M898.3,319c-23.3-1.8-50.3-8.1-78.5-17.8c-3.8-1.3-5.8-5.5-4.5-9.3c0.4-1.1,1-2,1.8-2.8
			c34.3-33.7,47.4-89.1,17.6-143.9c-8.5-15.6-21.4-28.2-37.1-36.4c-73.7-38.7-147,0.4-167.4,63.3c-1,2.9-4.2,4.5-7.1,3.5
			c-1-0.3-1.8-0.9-2.5-1.7c-21.7-24.7-37.3-51.2-43.5-78l-1.6-6.8c-1-4.3,0.1-8.9,2.9-12.3C615.4,30.4,672,0.5,735.8,0
			c113-0.9,205.9,90.7,206.7,204.5c0.3,41-10.8,75.1-30.6,107.5C909.1,316.7,903.8,319.4,898.3,319L898.3,319z"/>
		<path class="st1" d="M884.7,332.6C775.3,318,602.4,222.8,566,111.8c-0.9-2.8-3.9-4.4-6.8-3.5c-1.4,0.4-2.5,1.4-3.2,2.7
			c-15.4,29.9-23.3,63-23,96.7C533.9,318,616.1,377.4,729,488c5.8,5.7,15.1,5.6,20.9-0.1c56.2-56.7,105-100.2,139.4-143.6
			c2.5-3.1,1.9-7.6-1.2-10.1C887.1,333.3,885.9,332.8,884.7,332.6z M569.4,194.9l-2,0.5c-2.3,0.6-4.7-0.7-5.4-3.1c0,0,0-0.1,0-0.1
			c-2-8-3.4-16.2-4.1-24.4c-0.2-2.4,1.5-4.6,4-4.8c0.2,0,0.4,0,0.6,0l0,0c1.4,0.1,2.7,1.2,2.9,2.6c1.7,8.6,3.8,16.5,6.8,23.3
			c1,2.2,0,4.8-2.2,5.8C569.8,194.8,569.6,194.8,569.4,194.9z M629.9,286.9l-12.4,7.1c-3.1,1.8-7.1,0.9-9.2-2
			c-9.5-13.1-17.9-27-25.1-41.5c-2.3-4.6-0.4-10.3,4.2-12.6c0.2-0.1,0.4-0.2,0.6-0.3l2.3-0.9c4-1.6,8.5-0.3,10.9,3.2
			c9,12.8,19,24.8,30.1,35.9c2.8,2.8,2.7,7.3-0.1,10.1C630.9,286.2,630.5,286.6,629.9,286.9z M778.4,393.9l-19.6,19.7
			c-3.7,3.7-9.4,4.2-13.8,1.4c-26.2-17.1-49.4-32.9-70.5-54.2c-5.4-5.5-5.3-14.2,0.2-19.6c0.4-0.4,0.9-0.8,1.3-1.2l9.3-7.1
			c4.8-3.6,11.3-3.7,16.2-0.2c23.4,16.4,48.1,30.9,73.8,43.4c5.5,2.7,7.8,9.3,5.1,14.8C780,392,779.3,393,778.4,393.9L778.4,393.9z"
			/>
	</g>
</g>
</svg>
