<svg id="Capa_1" data-name="Capa 1" xmlns="http://www.w3.org/2000/svg" viewBox="0 0 1461.4 373.52"><defs><style>.cls-1{isolation:isolate;}.cls-2{fill:#fff;}</style></defs><g class="cls-1"><path class="cls-2" d="M499.11,367.36c6.38,6.6,9.56,15.56,9.56,26.79v64.5h-26v-58c0-6.38-1.44-11.31-4.4-14.73a14.73,14.73,0,0,0-11.69-5.16q-8.65,0-13.43,5.92c-3.19,4-4.78,9-4.78,15.33v56.61H422.62v-58c0-6.15-1.51-10.93-4.62-14.42a16.89,16.89,0,0,0-25.2.83q-4.77,6-4.78,15v56.6H361.77V360.61h23.9l1.37,9.94a29.48,29.48,0,0,1,11.53-9.64,36.3,36.3,0,0,1,33.54,1.29,29,29,0,0,1,11.76,13.13A30.56,30.56,0,0,1,456,362.13a35.93,35.93,0,0,1,18.52-4.71C484.54,357.42,492.74,360.76,499.11,367.36Z" transform="translate(-4.75 -244.04)"/></g><g class="cls-1"><path class="cls-2" d="M623.41,360.61,580.08,475.27c-3.49,9.18-8.12,16.62-13.89,22.23s-14.26,8.5-25.57,8.5a75.22,75.22,0,0,1-17.91-2.35l.23-22.08a89.14,89.14,0,0,0,13.36,1.51c6.52,0,11.23-1.29,14-3.79s5.08-6.37,7-11.46l2-5.46L518.77,360.61h28.3l24.21,68.52L596,360.61Z" transform="translate(-4.75 -244.04)"/></g><g class="cls-1"><path class="cls-2" d="M690.49,382.92H672.66v75.73h-26V382.92H629V360.61h17.61v-25.5h26v25.5h17.83Z" transform="translate(-4.75 -244.04)"/></g><g class="cls-1"><path class="cls-2" d="M760.76,360.61v23.52a40.12,40.12,0,0,0-5-.22c-8.43,0-14.88,2.35-19.35,7.13s-6.68,11.38-6.68,20v47.66H703.46V360.61h23.68l2.12,14.11a18.38,18.38,0,0,1,8.28-11.3,26.94,26.94,0,0,1,14.57-3.87A28.89,28.89,0,0,1,760.76,360.61Z" transform="translate(-4.75 -244.04)"/></g><g class="cls-1"><path class="cls-2" d="M871.62,360.61v98h-25V446.13a33.19,33.19,0,0,1-13.66,11.23,43.92,43.92,0,0,1-19.27,4.17,41.66,41.66,0,0,1-38.86-24.28c-3.79-7.74-5.61-16.69-5.61-26.94,0-10.47,2-19.73,5.84-27.69A43.44,43.44,0,0,1,791.56,364a45.48,45.48,0,0,1,24.36-6.6,44.4,44.4,0,0,1,18.67,3.72,32.53,32.53,0,0,1,13.35,10.7l2-11.23Zm-33.16,68.6c4.63-5,6.9-11.69,6.9-20s-2.27-15-6.82-20-10.55-7.51-18-7.51-13.58,2.58-18.06,7.66-6.68,11.76-6.68,19.88,2.28,14.8,6.83,19.89a22.72,22.72,0,0,0,17.68,7.66C827.76,436.72,833.83,434.22,838.46,429.21Z" transform="translate(-4.75 -244.04)"/></g><g class="cls-1"><path class="cls-2" d="M974.21,368.35c6.3,7.28,9.41,17.15,9.41,29.52v60.78H957.37V404.17c0-14.88-5.77-22.31-17.23-22.31-6.3,0-11.08,2-14.34,5.84s-4.93,9-4.93,15.4v55.55h-26v-98h21.85l1.67,11.46a31,31,0,0,1,12.37-10.7,38.49,38.49,0,0,1,17.46-3.95C959.19,357.42,967.91,361.06,974.21,368.35Z" transform="translate(-4.75 -244.04)"/></g><g class="cls-1"><path class="cls-2" d="M1012.53,452.73c-7.43-5.84-11.45-13.66-12.14-23.37h25.8a10.93,10.93,0,0,0,4.4,8.8,17.15,17.15,0,0,0,10.63,3.19c4,0,7.21-.84,9.63-2.51a8,8,0,0,0,3.57-7.13q0-4.54-2.73-6.6a20.22,20.22,0,0,0-7.36-3l-15.56-3.71q-13.42-3.3-19.8-10.7a26.83,26.83,0,0,1-6.38-18.06c0-9.64,3.57-17.38,10.63-23.3s16.31-8.88,27.85-8.88c11.23,0,20.33,2.89,27.39,8.73a29.45,29.45,0,0,1,11,23h-25.65a11,11,0,0,0-3.79-8.35,14.48,14.48,0,0,0-9.64-3.11,13.71,13.71,0,0,0-8.42,2.43,8,8,0,0,0-3.19,6.75c0,2.81.84,4.79,2.51,5.92a24.59,24.59,0,0,0,7.81,3l18.06,4.4c8.27,2,14.34,5.62,18.21,10.62a28.59,28.59,0,0,1,5.85,18c0,9.86-3.65,17.83-10.93,23.75s-16.92,8.95-29,8.95C1029.61,461.53,1020,458.57,1012.53,452.73Z" transform="translate(-4.75 -244.04)"/><path class="cls-2" d="M1185.24,363.87a43.31,43.31,0,0,1,16.32,18.37,65.91,65.91,0,0,1,0,54.25,43.87,43.87,0,0,1-40.52,25,46,46,0,0,1-17.46-3.18,33,33,0,0,1-12.82-9.11v55.09h-26V360.61h21.63l1.67,12.67a31.74,31.74,0,0,1,13.66-11.68,44.56,44.56,0,0,1,19.57-4.25A45.22,45.22,0,0,1,1185.24,363.87ZM1174,429.36c4.55-5.09,6.83-11.76,6.83-19.88s-2.28-14.8-6.83-19.88a22.68,22.68,0,0,0-17.68-7.67c-7.44,0-13.51,2.51-18.06,7.51s-6.9,11.77-6.9,20.27c0,8.34,2.27,14.94,6.82,19.88s10.48,7.43,17.91,7.43S1169.46,434.44,1174,429.36Z" transform="translate(-4.75 -244.04)"/></g><g class="cls-1"><path class="cls-2" d="M1222.2,382.54a46.15,46.15,0,0,1,18.36-18.44c7.89-4.48,16.85-6.68,26.94-6.68a53.76,53.76,0,0,1,26.94,6.68,47.17,47.17,0,0,1,18.36,18.44,58.67,58.67,0,0,1,0,53.8,46.47,46.47,0,0,1-18.36,18.52c-7.9,4.47-16.93,6.67-27,6.67s-19-2.2-26.78-6.67a48.21,48.21,0,0,1-18.37-18.44c-4.4-7.82-6.6-16.85-6.6-26.94A55,55,0,0,1,1222.2,382.54Zm27.16,46.89a24.62,24.62,0,0,0,36.27,0q7.06-8,7.06-20c0-8.19-2.28-14.87-6.9-20s-10.7-7.74-18.29-7.74-13.51,2.58-18.14,7.81-7,11.84-7,20S1244.66,424.12,1249.36,429.43Z" transform="translate(-4.75 -244.04)"/></g><g class="cls-1"><path class="cls-2" d="M1395.06,360.61v23.52a40.12,40.12,0,0,0-5-.22c-8.42,0-14.87,2.35-19.35,7.13s-6.68,11.38-6.68,20v47.66h-26.25V360.61h23.67l2.13,14.11a18.33,18.33,0,0,1,8.27-11.3,26.94,26.94,0,0,1,14.57-3.87A29.21,29.21,0,0,1,1395.06,360.61Z" transform="translate(-4.75 -244.04)"/></g><g class="cls-1"><path class="cls-2" d="M1466.16,382.92h-17.83v75.73h-26V382.92h-17.61V360.61h17.61v-25.5h26v25.5h17.83Z" transform="translate(-4.75 -244.04)"/></g><path class="cls-2" d="M282,486.11c-17.68-1.36-38.17-6.15-59.57-13.51a5.55,5.55,0,0,1-3.41-7.05,5.72,5.72,0,0,1,1.36-2.13c26-25.57,36-67.61,13.36-109.19a67.63,67.63,0,0,0-28.15-27.62c-55.93-29.37-111.55.3-127,48a4.28,4.28,0,0,1-5.39,2.66,4.12,4.12,0,0,1-1.9-1.29c-16.46-18.75-28.3-38.86-33-59.19L37,311.66a10.92,10.92,0,0,1,2.2-9.34,153.88,153.88,0,0,1,119.44-58.27c85.75-.69,156.24,68.82,156.85,155.18.23,31.11-8.2,57-23.22,81.57A11.08,11.08,0,0,1,282,486.11Z" transform="translate(-4.75 -244.04)"/><path class="cls-2" d="M271.64,496.43c-83-11.08-214.22-83.32-241.84-167.55a4.11,4.11,0,0,0-5.16-2.65,4,4,0,0,0-2.43,2A157,157,0,0,0,4.76,401.65c.68,83.7,63.06,128.78,148.73,212.7a11.32,11.32,0,0,0,15.86-.07c42.65-43,79.68-76,105.78-109a5.44,5.44,0,0,0-.91-7.66A5,5,0,0,0,271.64,496.43ZM32.38,391.94l-1.52.38A3.36,3.36,0,0,1,26.77,390v-.08a117.48,117.48,0,0,1-3.11-18.51,3.33,3.33,0,0,1,3-3.65h.46a2.44,2.44,0,0,1,2.2,2,85,85,0,0,0,5.16,17.68,3.33,3.33,0,0,1-1.67,4.4C32.69,391.87,32.53,391.87,32.38,391.94Zm45.91,69.81-9.41,5.39a5.34,5.34,0,0,1-7-1.52,222,222,0,0,1-19-31.49A7.18,7.18,0,0,1,46,424.57l.46-.23,1.74-.68a6.86,6.86,0,0,1,8.27,2.43,206.14,206.14,0,0,0,22.84,27.24,5.4,5.4,0,0,1-.07,7.66A3.5,3.5,0,0,1,78.29,461.75ZM191,543,176.1,557.9A8.39,8.39,0,0,1,165.63,559c-19.88-13-37.48-25-53.5-41.13a10.46,10.46,0,0,1,.16-14.87c.3-.31.68-.61,1-.91l7.06-5.39a10.35,10.35,0,0,1,12.29-.15,411.39,411.39,0,0,0,56,32.93,8.38,8.38,0,0,1,3.87,11.23A6.31,6.31,0,0,1,191,543Z" transform="translate(-4.75 -244.04)"/></svg>